<svg width="19" height="19" viewBox="0 0 19 19" fill="none" xmlns="http://www.w3.org/2000/svg">
<g id="Group">
<g id="Group ">
<path id="Vector" d="M14.9167 17.855C11.0315 18.2696 7.13447 18.2696 3.24923 17.855C1.70001 17.6896 0.476352 16.466 0.311008 14.9166C-0.103669 11.0314 -0.103669 7.13447 0.311008 3.24923C0.476352 1.70001 1.70001 0.476352 3.24923 0.311008C7.13447 -0.103669 11.0314 -0.103669 14.9166 0.311008C16.466 0.476352 17.6896 1.70001 17.855 3.24923C18.2696 7.13447 18.2696 11.0314 17.855 14.9166C17.6896 16.466 16.4661 17.6896 14.9167 17.855Z" fill="url(#paint0_linear_309_396)"/>
<path id="Vector_2" d="M16.867 3.90634C16.7204 2.53161 15.6346 1.44572 14.2598 1.29895C10.8121 0.931113 7.3541 0.931113 3.9064 1.29895C2.53167 1.44572 1.44578 2.53161 1.29901 3.90634C0.931174 7.35404 0.931174 10.812 1.29901 14.2596C1.44578 15.6344 2.53167 16.7203 3.9064 16.8669C7.3541 17.2349 10.8121 17.2349 14.2596 16.8669C15.6345 16.7203 16.7204 15.6344 16.867 14.2596C17.235 10.812 17.235 7.35404 16.867 3.90634Z" fill="url(#paint1_linear_309_396)"/>
<path id="Vector_3" d="M0.272064 14.54C0.284538 14.6656 0.297427 14.7912 0.310871 14.9167C0.476215 16.466 1.69987 17.6896 3.24923 17.855C7.13447 18.2696 11.0314 18.2696 14.9166 17.855C16.466 17.6896 17.6895 16.466 17.8548 14.9167C17.8683 14.7912 17.8812 14.6656 17.8938 14.54H0.272064Z" fill="url(#paint2_linear_309_396)"/>
<path id="Vector_4" d="M12.213 3.02545C10.6302 3.02545 9.34725 4.30857 9.34725 5.89133V8.03193H7.80496V10.6823L9.34725 12.0637V18.1652C11.2047 18.1562 13.062 18.0529 14.9168 17.855C16.4662 17.6897 17.6897 16.466 17.8551 14.9167C18.1636 12.0258 18.2424 9.12864 18.0918 6.23449L14.8827 3.02545H12.213Z" fill="url(#paint3_linear_309_396)"/>
<path id="Vector_5" d="M9.34725 18.1652C10.4057 18.1601 11.464 18.1242 12.5219 18.0576V10.6823H14.6283L14.8827 8.03193H12.5219V6.34897C12.5219 5.97726 12.8232 5.67595 13.1949 5.67595H14.8827V3.02545H12.213C10.6302 3.02545 9.34725 4.30857 9.34725 5.89133V8.03193H7.80496V10.6823H9.34725V18.1652Z" fill="white"/>
</g>
</g>
<defs>
<linearGradient id="paint0_linear_309_396" x1="6.03146" y1="2.5541" x2="10.6261" y2="12.3846" gradientUnits="userSpaceOnUse">
<stop stop-color="#3457A0"/>
<stop offset="1" stop-color="#3B5998"/>
</linearGradient>
<linearGradient id="paint1_linear_309_396" x1="12.5291" y1="11.4507" x2="-3.35096" y2="0.539627" gradientUnits="userSpaceOnUse">
<stop stop-color="#3457A0" stop-opacity="0"/>
<stop offset="1" stop-color="#1F3F77"/>
</linearGradient>
<linearGradient id="paint2_linear_309_396" x1="9.08286" y1="15.1811" x2="9.08286" y2="17.6393" gradientUnits="userSpaceOnUse">
<stop stop-color="#3457A0" stop-opacity="0"/>
<stop offset="1" stop-color="#1F3F77"/>
</linearGradient>
<linearGradient id="paint3_linear_309_396" x1="20.8547" y1="15.0022" x2="8.24601" y2="8.64444" gradientUnits="userSpaceOnUse">
<stop stop-color="#3457A0" stop-opacity="0"/>
<stop offset="0.3251" stop-color="#2A4C8D" stop-opacity="0.32549"/>
<stop offset="0.7045" stop-color="#22427D" stop-opacity="0.705882"/>
<stop offset="1" stop-color="#1F3F77"/>
</linearGradient>
</defs>
</svg>
